# xmcd CD database file
#
# Track frame offsets:
#	150
#	13043
#	22143
#	32735
#	44493
#	56940
#	67763
#	82340
#	93158
#	105548
#
# Disc length: 1520 seconds
#
# Revision: 3
# Processed by: cddbd v1.5.1PL0 Copyright (c) Steve Scherf et al.
# Submitted via: CDex 1.51
#
DISCID=8205ee0a
DTITLE=Various Artist - Goofy Greats
DYEAR=1992
DGENRE=60's
TTITLE0=The Shangri-Las -Leader of the Pack
TTITLE1=The Kingsmen - The Jolly Green Giant
TTITLE2=Clarence "Frogamn" Henry - Ain't Got No Home
TTITLE3=The Royal Teens - Short Shorts
TTITLE4=Barry Mann - Who Put The Bomp (In The Bomp, Bomp, Bomp)
TTITLE5=The Trashman - Surfin' Bird
TTITLE6=Ray Stevens - Gitarzan
TTITLE7=Big Bopper - Chantilly Lace
TTITLE8=Hollywood Argyles - Alley Oop
TTITLE9=The Newbeats - Bread And Butter
EXTD=YEAR: 1992
EXTT0=The Shangri-Las
EXTT1=The Kingsmen
EXTT2=Clarence "Frogman" Henry
EXTT3=The Royal Teens
EXTT4=Barry Mann
EXTT5=The Trashmen
EXTT6=Ray Stevens
EXTT7=Big Bopper
EXTT8=Hollywood Argyles
EXTT9=The Newbeats
PLAYORDER=
